<svg width="866" height="97" viewBox="0 0 866 97" fill="none" xmlns="http://www.w3.org/2000/svg">
<mask id="path-1-outside-1_262_495" maskUnits="userSpaceOnUse" x="-0.00390625" y="0.287109" width="866" height="96" fill="black">
<rect fill="white" x="-0.00390625" y="0.287109" width="866" height="96"/>
<path d="M0.996094 93.7178V1.44404H31.2072V93.7178H0.996094Z"/>
<path d="M154.5 95.2871C150.304 95.2871 145.636 94.6594 140.496 93.404C135.356 92.0439 130.269 88.8007 125.233 83.6744L118.625 77.0834C115.478 73.9449 112.436 71.3817 109.498 69.394C106.666 67.4062 103.414 65.9415 99.7427 65C96.0713 63.9538 91.4557 63.4307 85.896 63.4307H84.6372V93.7178H53.954V13.9983L52.3805 1.28711H125.233C131.947 1.28711 137.349 2.12406 141.44 3.79797C145.636 5.36725 148.836 7.51193 151.039 10.232C153.346 12.8475 154.92 15.8291 155.759 19.1769C156.598 22.5247 157.018 25.9248 157.018 29.3773V32.3589C157.018 38.636 155.392 44.2854 152.14 49.3071C148.993 54.2242 143.958 57.729 137.035 59.8213C139.657 61.3906 142.122 63.0122 144.43 64.6861C146.843 66.2554 149.57 67.9293 152.612 69.7078C156.074 71.6956 159.273 73.1602 162.21 74.1018C165.253 74.9388 167.77 75.4618 169.763 75.6711C171.756 75.8803 172.91 75.9849 173.225 75.9849L168.504 93.7178C167.246 94.0317 165.305 94.3455 162.683 94.6594C160.165 95.0779 157.438 95.2871 154.5 95.2871ZM102.89 42.5592C105.512 42.5592 108.03 42.5069 110.443 42.4023C112.96 42.2977 115.215 42.1408 117.209 41.9315C120.775 41.513 123.188 40.4145 124.447 38.636C125.81 36.7529 126.492 34.5036 126.492 31.8881V30.1619C126.492 27.8603 125.81 26.0818 124.447 24.8263C123.188 23.5709 120.828 22.9432 117.366 22.9432H84.6372V41.9315C87.2597 42.0361 90.1444 42.1931 93.2914 42.4023C96.4384 42.5069 99.6378 42.5592 102.89 42.5592Z"/>
<path d="M213.884 93.7178C202.764 93.7178 194.635 91.2593 189.495 86.3422C184.459 81.3205 181.942 73.3695 181.942 62.4891V32.5158C181.942 21.8447 184.459 13.9983 189.495 8.9766C194.53 3.9549 202.66 1.44404 213.884 1.44404H259.83C270.844 1.44404 278.869 3.9549 283.904 8.9766C289.044 13.9983 291.614 21.8447 291.614 32.5158V62.4891C291.614 73.3695 289.044 81.3205 283.904 86.3422C278.764 91.2593 270.739 93.7178 259.83 93.7178H213.884ZM224.741 72.3756H249.13C257.312 72.3756 261.403 68.6616 261.403 61.2337V33.7713C261.403 26.4479 257.312 22.7863 249.13 22.7863H224.741C220.545 22.7863 217.398 23.6232 215.3 25.2971C213.202 26.971 212.153 29.7957 212.153 33.7713V61.2337C212.153 65.1046 213.202 67.9293 215.3 69.7078C217.398 71.4863 220.545 72.3756 224.741 72.3756Z"/>
<path d="M312.843 93.7178V13.9983L311.27 1.44404H340.222L384.595 46.3255L390.731 53.2304H392.462V1.44404H422.673V93.7178H396.396L350.764 48.3656L344.628 40.9899H343.054V93.7178H312.843Z"/>
<path d="M474.31 93.7178C463.085 93.7178 454.956 91.2593 449.92 86.3422C444.885 81.4251 442.368 73.4741 442.368 62.4891V33.7713C442.368 22.4724 445.147 14.2598 450.707 9.13352C456.267 3.90258 464.134 1.28711 474.31 1.28711H526.864C534.102 1.28711 539.61 1.70559 543.386 2.54254C547.267 3.27487 549.208 4.05951 549.208 4.89646L544.33 24.5125C541.708 24.1986 536.568 23.8848 528.91 23.5709C521.357 23.1524 511.811 22.9432 500.272 22.9432H485.639C480.708 22.9432 477.352 23.8848 475.568 25.7679C473.89 27.5464 473.051 30.3188 473.051 34.0851V60.9198C473.051 64.4769 473.785 67.2493 475.254 69.237C476.827 71.1202 480.289 72.0617 485.639 72.0617H498.384C503.209 72.0617 507.563 72.0617 511.444 72.0617C515.325 71.9571 518.735 71.8525 521.672 71.7479V59.8213L515.378 59.9783L494.765 61.5475V39.8915H551.726V87.1268L553.299 90.4223C553.299 91.2593 551.096 92.0439 546.69 92.7763C542.285 93.404 534.837 93.7178 524.347 93.7178H474.31Z"/>
<path d="M673.508 95.2871C669.312 95.2871 664.644 94.6594 659.504 93.404C654.364 92.0439 649.276 88.8007 644.241 83.6744L637.632 77.0834C634.485 73.9449 631.443 71.3817 628.506 69.394C625.674 67.4062 622.422 65.9415 618.75 65C615.079 63.9538 610.463 63.4307 604.903 63.4307H603.645V93.7178H572.962V13.9983L571.388 1.28711H644.241C650.954 1.28711 656.357 2.12406 660.448 3.79797C664.644 5.36725 667.843 7.51193 670.046 10.232C672.354 12.8475 673.927 15.8291 674.767 19.1769C675.606 22.5247 676.025 25.9248 676.025 29.3773V32.3589C676.025 38.636 674.4 44.2854 671.148 49.3071C668.001 54.2242 662.965 57.729 656.042 59.8213C658.665 61.3906 661.13 63.0122 663.437 64.6861C665.85 66.2554 668.578 67.9293 671.62 69.7078C675.081 71.6956 678.281 73.1602 681.218 74.1018C684.26 74.9388 686.778 75.4618 688.771 75.6711C690.764 75.8803 691.918 75.9849 692.232 75.9849L687.512 93.7178C686.253 94.0317 684.313 94.3455 681.69 94.6594C679.172 95.0779 676.445 95.2871 673.508 95.2871ZM621.897 42.5592C624.52 42.5592 627.037 42.5069 629.45 42.4023C631.968 42.2977 634.223 42.1408 636.216 41.9315C639.783 41.513 642.195 40.4145 643.454 38.636C644.818 36.7529 645.5 34.5036 645.5 31.8881V30.1619C645.5 27.8603 644.818 26.0818 643.454 24.8263C642.195 23.5709 639.835 22.9432 636.373 22.9432H603.645V41.9315C606.267 42.0361 609.152 42.1931 612.299 42.4023C615.446 42.5069 618.645 42.5592 621.897 42.5592Z"/>
<path d="M702.523 93.7178V1.44404H732.734V93.7178H702.523Z"/>
<path d="M755.481 93.7178V13.9983L753.907 1.44404H826.917C839.61 1.44404 849.104 3.9549 855.398 8.9766C861.797 13.9983 864.996 21.8447 864.996 32.5158V62.4891C864.996 73.3695 861.849 81.3205 855.555 86.3422C849.261 91.2593 839.715 93.7178 826.917 93.7178H755.481ZM786.164 72.0617H822.197C830.274 72.0617 834.365 68.3478 834.47 60.9198V33.7713C834.47 30.7373 833.579 28.1741 831.795 26.0818C830.012 23.8848 826.813 22.7863 822.197 22.7863H786.164V72.0617Z"/>
</mask>
<path d="M0.996094 93.7178V1.44404H31.2072V93.7178H0.996094Z" fill="url(#paint0_linear_262_495)"/>
<path d="M154.5 95.2871C150.304 95.2871 145.636 94.6594 140.496 93.404C135.356 92.0439 130.269 88.8007 125.233 83.6744L118.625 77.0834C115.478 73.9449 112.436 71.3817 109.498 69.394C106.666 67.4062 103.414 65.9415 99.7427 65C96.0713 63.9538 91.4557 63.4307 85.896 63.4307H84.6372V93.7178H53.954V13.9983L52.3805 1.28711H125.233C131.947 1.28711 137.349 2.12406 141.44 3.79797C145.636 5.36725 148.836 7.51193 151.039 10.232C153.346 12.8475 154.92 15.8291 155.759 19.1769C156.598 22.5247 157.018 25.9248 157.018 29.3773V32.3589C157.018 38.636 155.392 44.2854 152.14 49.3071C148.993 54.2242 143.958 57.729 137.035 59.8213C139.657 61.3906 142.122 63.0122 144.43 64.6861C146.843 66.2554 149.57 67.9293 152.612 69.7078C156.074 71.6956 159.273 73.1602 162.21 74.1018C165.253 74.9388 167.77 75.4618 169.763 75.6711C171.756 75.8803 172.91 75.9849 173.225 75.9849L168.504 93.7178C167.246 94.0317 165.305 94.3455 162.683 94.6594C160.165 95.0779 157.438 95.2871 154.5 95.2871ZM102.89 42.5592C105.512 42.5592 108.03 42.5069 110.443 42.4023C112.96 42.2977 115.215 42.1408 117.209 41.9315C120.775 41.513 123.188 40.4145 124.447 38.636C125.81 36.7529 126.492 34.5036 126.492 31.8881V30.1619C126.492 27.8603 125.81 26.0818 124.447 24.8263C123.188 23.5709 120.828 22.9432 117.366 22.9432H84.6372V41.9315C87.2597 42.0361 90.1444 42.1931 93.2914 42.4023C96.4384 42.5069 99.6378 42.5592 102.89 42.5592Z" fill="url(#paint1_linear_262_495)"/>
<path d="M213.884 93.7178C202.764 93.7178 194.635 91.2593 189.495 86.3422C184.459 81.3205 181.942 73.3695 181.942 62.4891V32.5158C181.942 21.8447 184.459 13.9983 189.495 8.9766C194.53 3.9549 202.66 1.44404 213.884 1.44404H259.83C270.844 1.44404 278.869 3.9549 283.904 8.9766C289.044 13.9983 291.614 21.8447 291.614 32.5158V62.4891C291.614 73.3695 289.044 81.3205 283.904 86.3422C278.764 91.2593 270.739 93.7178 259.83 93.7178H213.884ZM224.741 72.3756H249.13C257.312 72.3756 261.403 68.6616 261.403 61.2337V33.7713C261.403 26.4479 257.312 22.7863 249.13 22.7863H224.741C220.545 22.7863 217.398 23.6232 215.3 25.2971C213.202 26.971 212.153 29.7957 212.153 33.7713V61.2337C212.153 65.1046 213.202 67.9293 215.3 69.7078C217.398 71.4863 220.545 72.3756 224.741 72.3756Z" fill="url(#paint2_linear_262_495)"/>
<path d="M312.843 93.7178V13.9983L311.27 1.44404H340.222L384.595 46.3255L390.731 53.2304H392.462V1.44404H422.673V93.7178H396.396L350.764 48.3656L344.628 40.9899H343.054V93.7178H312.843Z" fill="url(#paint3_linear_262_495)"/>
<path d="M474.31 93.7178C463.085 93.7178 454.956 91.2593 449.92 86.3422C444.885 81.4251 442.368 73.4741 442.368 62.4891V33.7713C442.368 22.4724 445.147 14.2598 450.707 9.13352C456.267 3.90258 464.134 1.28711 474.31 1.28711H526.864C534.102 1.28711 539.61 1.70559 543.386 2.54254C547.267 3.27487 549.208 4.05951 549.208 4.89646L544.33 24.5125C541.708 24.1986 536.568 23.8848 528.91 23.5709C521.357 23.1524 511.811 22.9432 500.272 22.9432H485.639C480.708 22.9432 477.352 23.8848 475.568 25.7679C473.89 27.5464 473.051 30.3188 473.051 34.0851V60.9198C473.051 64.4769 473.785 67.2493 475.254 69.237C476.827 71.1202 480.289 72.0617 485.639 72.0617H498.384C503.209 72.0617 507.563 72.0617 511.444 72.0617C515.325 71.9571 518.735 71.8525 521.672 71.7479V59.8213L515.378 59.9783L494.765 61.5475V39.8915H551.726V87.1268L553.299 90.4223C553.299 91.2593 551.096 92.0439 546.69 92.7763C542.285 93.404 534.837 93.7178 524.347 93.7178H474.31Z" fill="url(#paint4_linear_262_495)"/>
<path d="M673.508 95.2871C669.312 95.2871 664.644 94.6594 659.504 93.404C654.364 92.0439 649.276 88.8007 644.241 83.6744L637.632 77.0834C634.485 73.9449 631.443 71.3817 628.506 69.394C625.674 67.4062 622.422 65.9415 618.75 65C615.079 63.9538 610.463 63.4307 604.903 63.4307H603.645V93.7178H572.962V13.9983L571.388 1.28711H644.241C650.954 1.28711 656.357 2.12406 660.448 3.79797C664.644 5.36725 667.843 7.51193 670.046 10.232C672.354 12.8475 673.927 15.8291 674.767 19.1769C675.606 22.5247 676.025 25.9248 676.025 29.3773V32.3589C676.025 38.636 674.4 44.2854 671.148 49.3071C668.001 54.2242 662.965 57.729 656.042 59.8213C658.665 61.3906 661.13 63.0122 663.437 64.6861C665.85 66.2554 668.578 67.9293 671.62 69.7078C675.081 71.6956 678.281 73.1602 681.218 74.1018C684.26 74.9388 686.778 75.4618 688.771 75.6711C690.764 75.8803 691.918 75.9849 692.232 75.9849L687.512 93.7178C686.253 94.0317 684.313 94.3455 681.69 94.6594C679.172 95.0779 676.445 95.2871 673.508 95.2871ZM621.897 42.5592C624.52 42.5592 627.037 42.5069 629.45 42.4023C631.968 42.2977 634.223 42.1408 636.216 41.9315C639.783 41.513 642.195 40.4145 643.454 38.636C644.818 36.7529 645.5 34.5036 645.5 31.8881V30.1619C645.5 27.8603 644.818 26.0818 643.454 24.8263C642.195 23.5709 639.835 22.9432 636.373 22.9432H603.645V41.9315C606.267 42.0361 609.152 42.1931 612.299 42.4023C615.446 42.5069 618.645 42.5592 621.897 42.5592Z" fill="url(#paint5_linear_262_495)"/>
<path d="M702.523 93.7178V1.44404H732.734V93.7178H702.523Z" fill="url(#paint6_linear_262_495)"/>
<path d="M755.481 93.7178V13.9983L753.907 1.44404H826.917C839.61 1.44404 849.104 3.9549 855.398 8.9766C861.797 13.9983 864.996 21.8447 864.996 32.5158V62.4891C864.996 73.3695 861.849 81.3205 855.555 86.3422C849.261 91.2593 839.715 93.7178 826.917 93.7178H755.481ZM786.164 72.0617H822.197C830.274 72.0617 834.365 68.3478 834.47 60.9198V33.7713C834.47 30.7373 833.579 28.1741 831.795 26.0818C830.012 23.8848 826.813 22.7863 822.197 22.7863H786.164V72.0617Z" fill="url(#paint7_linear_262_495)"/>
<path d="M0.996094 93.7178V1.44404H31.2072V93.7178H0.996094Z" stroke="url(#paint8_linear_262_495)" stroke-width="2" mask="url(#path-1-outside-1_262_495)"/>
<path d="M154.5 95.2871C150.304 95.2871 145.636 94.6594 140.496 93.404C135.356 92.0439 130.269 88.8007 125.233 83.6744L118.625 77.0834C115.478 73.9449 112.436 71.3817 109.498 69.394C106.666 67.4062 103.414 65.9415 99.7427 65C96.0713 63.9538 91.4557 63.4307 85.896 63.4307H84.6372V93.7178H53.954V13.9983L52.3805 1.28711H125.233C131.947 1.28711 137.349 2.12406 141.44 3.79797C145.636 5.36725 148.836 7.51193 151.039 10.232C153.346 12.8475 154.92 15.8291 155.759 19.1769C156.598 22.5247 157.018 25.9248 157.018 29.3773V32.3589C157.018 38.636 155.392 44.2854 152.14 49.3071C148.993 54.2242 143.958 57.729 137.035 59.8213C139.657 61.3906 142.122 63.0122 144.43 64.6861C146.843 66.2554 149.57 67.9293 152.612 69.7078C156.074 71.6956 159.273 73.1602 162.21 74.1018C165.253 74.9388 167.77 75.4618 169.763 75.6711C171.756 75.8803 172.91 75.9849 173.225 75.9849L168.504 93.7178C167.246 94.0317 165.305 94.3455 162.683 94.6594C160.165 95.0779 157.438 95.2871 154.5 95.2871ZM102.89 42.5592C105.512 42.5592 108.03 42.5069 110.443 42.4023C112.96 42.2977 115.215 42.1408 117.209 41.9315C120.775 41.513 123.188 40.4145 124.447 38.636C125.81 36.7529 126.492 34.5036 126.492 31.8881V30.1619C126.492 27.8603 125.81 26.0818 124.447 24.8263C123.188 23.5709 120.828 22.9432 117.366 22.9432H84.6372V41.9315C87.2597 42.0361 90.1444 42.1931 93.2914 42.4023C96.4384 42.5069 99.6378 42.5592 102.89 42.5592Z" stroke="url(#paint9_linear_262_495)" stroke-width="2" mask="url(#path-1-outside-1_262_495)"/>
<path d="M213.884 93.7178C202.764 93.7178 194.635 91.2593 189.495 86.3422C184.459 81.3205 181.942 73.3695 181.942 62.4891V32.5158C181.942 21.8447 184.459 13.9983 189.495 8.9766C194.53 3.9549 202.66 1.44404 213.884 1.44404H259.83C270.844 1.44404 278.869 3.9549 283.904 8.9766C289.044 13.9983 291.614 21.8447 291.614 32.5158V62.4891C291.614 73.3695 289.044 81.3205 283.904 86.3422C278.764 91.2593 270.739 93.7178 259.83 93.7178H213.884ZM224.741 72.3756H249.13C257.312 72.3756 261.403 68.6616 261.403 61.2337V33.7713C261.403 26.4479 257.312 22.7863 249.13 22.7863H224.741C220.545 22.7863 217.398 23.6232 215.3 25.2971C213.202 26.971 212.153 29.7957 212.153 33.7713V61.2337C212.153 65.1046 213.202 67.9293 215.3 69.7078C217.398 71.4863 220.545 72.3756 224.741 72.3756Z" stroke="url(#paint10_linear_262_495)" stroke-width="2" mask="url(#path-1-outside-1_262_495)"/>
<path d="M312.843 93.7178V13.9983L311.27 1.44404H340.222L384.595 46.3255L390.731 53.2304H392.462V1.44404H422.673V93.7178H396.396L350.764 48.3656L344.628 40.9899H343.054V93.7178H312.843Z" stroke="url(#paint11_linear_262_495)" stroke-width="2" mask="url(#path-1-outside-1_262_495)"/>
<path d="M474.31 93.7178C463.085 93.7178 454.956 91.2593 449.92 86.3422C444.885 81.4251 442.368 73.4741 442.368 62.4891V33.7713C442.368 22.4724 445.147 14.2598 450.707 9.13352C456.267 3.90258 464.134 1.28711 474.31 1.28711H526.864C534.102 1.28711 539.61 1.70559 543.386 2.54254C547.267 3.27487 549.208 4.05951 549.208 4.89646L544.33 24.5125C541.708 24.1986 536.568 23.8848 528.91 23.5709C521.357 23.1524 511.811 22.9432 500.272 22.9432H485.639C480.708 22.9432 477.352 23.8848 475.568 25.7679C473.89 27.5464 473.051 30.3188 473.051 34.0851V60.9198C473.051 64.4769 473.785 67.2493 475.254 69.237C476.827 71.1202 480.289 72.0617 485.639 72.0617H498.384C503.209 72.0617 507.563 72.0617 511.444 72.0617C515.325 71.9571 518.735 71.8525 521.672 71.7479V59.8213L515.378 59.9783L494.765 61.5475V39.8915H551.726V87.1268L553.299 90.4223C553.299 91.2593 551.096 92.0439 546.69 92.7763C542.285 93.404 534.837 93.7178 524.347 93.7178H474.31Z" stroke="url(#paint12_linear_262_495)" stroke-width="2" mask="url(#path-1-outside-1_262_495)"/>
<path d="M673.508 95.2871C669.312 95.2871 664.644 94.6594 659.504 93.404C654.364 92.0439 649.276 88.8007 644.241 83.6744L637.632 77.0834C634.485 73.9449 631.443 71.3817 628.506 69.394C625.674 67.4062 622.422 65.9415 618.75 65C615.079 63.9538 610.463 63.4307 604.903 63.4307H603.645V93.7178H572.962V13.9983L571.388 1.28711H644.241C650.954 1.28711 656.357 2.12406 660.448 3.79797C664.644 5.36725 667.843 7.51193 670.046 10.232C672.354 12.8475 673.927 15.8291 674.767 19.1769C675.606 22.5247 676.025 25.9248 676.025 29.3773V32.3589C676.025 38.636 674.4 44.2854 671.148 49.3071C668.001 54.2242 662.965 57.729 656.042 59.8213C658.665 61.3906 661.13 63.0122 663.437 64.6861C665.85 66.2554 668.578 67.9293 671.62 69.7078C675.081 71.6956 678.281 73.1602 681.218 74.1018C684.26 74.9388 686.778 75.4618 688.771 75.6711C690.764 75.8803 691.918 75.9849 692.232 75.9849L687.512 93.7178C686.253 94.0317 684.313 94.3455 681.69 94.6594C679.172 95.0779 676.445 95.2871 673.508 95.2871ZM621.897 42.5592C624.52 42.5592 627.037 42.5069 629.45 42.4023C631.968 42.2977 634.223 42.1408 636.216 41.9315C639.783 41.513 642.195 40.4145 643.454 38.636C644.818 36.7529 645.5 34.5036 645.5 31.8881V30.1619C645.5 27.8603 644.818 26.0818 643.454 24.8263C642.195 23.5709 639.835 22.9432 636.373 22.9432H603.645V41.9315C606.267 42.0361 609.152 42.1931 612.299 42.4023C615.446 42.5069 618.645 42.5592 621.897 42.5592Z" stroke="url(#paint13_linear_262_495)" stroke-width="2" mask="url(#path-1-outside-1_262_495)"/>
<path d="M702.523 93.7178V1.44404H732.734V93.7178H702.523Z" stroke="url(#paint14_linear_262_495)" stroke-width="2" mask="url(#path-1-outside-1_262_495)"/>
<path d="M755.481 93.7178V13.9983L753.907 1.44404H826.917C839.61 1.44404 849.104 3.9549 855.398 8.9766C861.797 13.9983 864.996 21.8447 864.996 32.5158V62.4891C864.996 73.3695 861.849 81.3205 855.555 86.3422C849.261 91.2593 839.715 93.7178 826.917 93.7178H755.481ZM786.164 72.0617H822.197C830.274 72.0617 834.365 68.3478 834.47 60.9198V33.7713C834.47 30.7373 833.579 28.1741 831.795 26.0818C830.012 23.8848 826.813 22.7863 822.197 22.7863H786.164V72.0617Z" stroke="url(#paint15_linear_262_495)" stroke-width="2" mask="url(#path-1-outside-1_262_495)"/>
<defs>
<linearGradient id="paint0_linear_262_495" x1="432.996" y1="1.28711" x2="432.996" y2="94.9839" gradientUnits="userSpaceOnUse">
<stop stop-color="#1A1F2E"/>
<stop offset="1" stop-color="#1A1F2D"/>
</linearGradient>
<linearGradient id="paint1_linear_262_495" x1="432.996" y1="1.28711" x2="432.996" y2="94.9839" gradientUnits="userSpaceOnUse">
<stop stop-color="#1A1F2E"/>
<stop offset="1" stop-color="#1A1F2D"/>
</linearGradient>
<linearGradient id="paint2_linear_262_495" x1="432.996" y1="1.28711" x2="432.996" y2="94.9839" gradientUnits="userSpaceOnUse">
<stop stop-color="#1A1F2E"/>
<stop offset="1" stop-color="#1A1F2D"/>
</linearGradient>
<linearGradient id="paint3_linear_262_495" x1="432.996" y1="1.28711" x2="432.996" y2="94.9839" gradientUnits="userSpaceOnUse">
<stop stop-color="#1A1F2E"/>
<stop offset="1" stop-color="#1A1F2D"/>
</linearGradient>
<linearGradient id="paint4_linear_262_495" x1="432.996" y1="1.28711" x2="432.996" y2="94.9839" gradientUnits="userSpaceOnUse">
<stop stop-color="#1A1F2E"/>
<stop offset="1" stop-color="#1A1F2D"/>
</linearGradient>
<linearGradient id="paint5_linear_262_495" x1="432.996" y1="1.28711" x2="432.996" y2="94.9839" gradientUnits="userSpaceOnUse">
<stop stop-color="#1A1F2E"/>
<stop offset="1" stop-color="#1A1F2D"/>
</linearGradient>
<linearGradient id="paint6_linear_262_495" x1="432.996" y1="1.28711" x2="432.996" y2="94.9839" gradientUnits="userSpaceOnUse">
<stop stop-color="#1A1F2E"/>
<stop offset="1" stop-color="#1A1F2D"/>
</linearGradient>
<linearGradient id="paint7_linear_262_495" x1="432.996" y1="1.28711" x2="432.996" y2="94.9839" gradientUnits="userSpaceOnUse">
<stop stop-color="#1A1F2E"/>
<stop offset="1" stop-color="#1A1F2D"/>
</linearGradient>
<linearGradient id="paint8_linear_262_495" x1="432.996" y1="1.28711" x2="432.996" y2="95.2871" gradientUnits="userSpaceOnUse">
<stop stop-color="#262A39"/>
<stop offset="1" stop-color="#EAEAEA"/>
</linearGradient>
<linearGradient id="paint9_linear_262_495" x1="432.996" y1="1.28711" x2="432.996" y2="95.2871" gradientUnits="userSpaceOnUse">
<stop stop-color="#262A39"/>
<stop offset="1" stop-color="#EAEAEA"/>
</linearGradient>
<linearGradient id="paint10_linear_262_495" x1="432.996" y1="1.28711" x2="432.996" y2="95.2871" gradientUnits="userSpaceOnUse">
<stop stop-color="#262A39"/>
<stop offset="1" stop-color="#EAEAEA"/>
</linearGradient>
<linearGradient id="paint11_linear_262_495" x1="432.996" y1="1.28711" x2="432.996" y2="95.2871" gradientUnits="userSpaceOnUse">
<stop stop-color="#262A39"/>
<stop offset="1" stop-color="#EAEAEA"/>
</linearGradient>
<linearGradient id="paint12_linear_262_495" x1="432.996" y1="1.28711" x2="432.996" y2="95.2871" gradientUnits="userSpaceOnUse">
<stop stop-color="#262A39"/>
<stop offset="1" stop-color="#EAEAEA"/>
</linearGradient>
<linearGradient id="paint13_linear_262_495" x1="432.996" y1="1.28711" x2="432.996" y2="95.2871" gradientUnits="userSpaceOnUse">
<stop stop-color="#262A39"/>
<stop offset="1" stop-color="#EAEAEA"/>
</linearGradient>
<linearGradient id="paint14_linear_262_495" x1="432.996" y1="1.28711" x2="432.996" y2="95.2871" gradientUnits="userSpaceOnUse">
<stop stop-color="#262A39"/>
<stop offset="1" stop-color="#EAEAEA"/>
</linearGradient>
<linearGradient id="paint15_linear_262_495" x1="432.996" y1="1.28711" x2="432.996" y2="95.2871" gradientUnits="userSpaceOnUse">
<stop stop-color="#262A39"/>
<stop offset="1" stop-color="#EAEAEA"/>
</linearGradient>
</defs>
</svg>
