<svg width="288" height="61" viewBox="0 0 288 61" fill="none" xmlns="http://www.w3.org/2000/svg">
<path d="M148.26 60.1909H142.339V49.9941C142.339 49.6162 142.132 48.3929 142.018 47.98C141.345 45.5506 138.086 45.5817 136.914 47.532C136.51 48.2052 136.106 49.5406 136.106 50.305V60.1909H130.029V48.4366C130.029 48.3703 129.617 47.3465 129.539 47.2141C128.632 45.6776 125.943 45.8591 124.887 47.1915C124.627 47.5187 123.952 49.0248 123.952 49.3708V60.1909H117.874V41.8207H123.952V44.4675L124.728 43.4523C127.598 40.1658 133.69 40.6707 135.562 44.7761C137.818 40.5157 145.211 39.9313 147.438 44.434C147.667 44.8953 148.262 46.6087 148.262 47.0364V60.1917L148.26 60.1909Z" fill="white"/>
<path d="M88.8882 45.4034C88.5609 41.0121 85.6344 38.9528 81.3257 39.3252C73.7344 39.982 73.6767 54.1596 81.1924 55.0377C85.3757 55.5262 88.6817 53.2986 88.8889 48.9821L94.9679 49.1379C94.9102 54.0263 91.9947 58.3686 87.3252 59.9518C75.6082 63.9255 65.5758 53.0197 70.1152 41.6681C74.4598 30.8028 91.6542 30.707 94.6446 42.533C94.7614 42.995 95.1417 44.6835 95.0832 45.0193C95.0567 45.1728 94.8822 45.2374 94.7349 45.2468L88.8905 45.4026L88.8882 45.4034Z" fill="white"/>
<path d="M228.049 34.1924V39.3301H218.855V60.1913H212.466V39.3301H203.428V34.1924H228.049Z" fill="white"/>
<path d="M171.479 56.1418V59.3332C171.479 59.5101 170.642 59.9191 170.443 60.0111C167.631 61.3193 164.013 60.6523 163.143 57.3877C160.67 62.1421 150.895 61.8655 150.895 55.5964C150.895 49.7722 158.839 49.8189 162.908 48.979C162.837 46.8091 161.893 45.5959 159.598 45.9076C158.037 46.1195 157.68 47.2836 157.041 48.5014L151.692 48.0417C152.306 42.1365 158.801 40.367 163.844 41.7399C170.531 43.5608 168.475 50.6371 168.863 55.8753C169.12 56.769 170.833 56.5134 171.479 56.1418ZM162.907 52.0949C161.429 52.4307 157.436 52.5585 156.901 54.2648C156.001 57.1305 160.532 57.3027 162.041 55.1975C162.724 54.2445 162.752 53.2075 162.907 52.0949Z" fill="white"/>
<path d="M205.764 52.2529H192.518C192.431 55.8207 196.807 57.1639 199.483 55.3968C200.361 54.8179 200.311 54.1673 201.016 53.6468C202.285 53.8759 203.623 53.8221 204.891 53.9826C205.095 54.0083 205.639 54.0278 205.603 54.3434C205.537 54.9309 204.987 56.1541 204.675 56.691C202.392 60.6187 196.835 61.4454 192.796 60.1465C181.927 56.6512 185.879 39.1163 198.786 41.5528C202.268 42.2104 205.763 45.7181 205.763 49.3724V52.2521L205.764 52.2529ZM199.842 49.2952C200.006 44.9849 193.945 44.3811 192.72 48.3283C192.656 48.534 192.388 49.2952 192.752 49.2952H199.842Z" fill="white"/>
<path d="M179.894 36.6846V41.8223H184.725V46.0259H179.894V54.3551C179.894 54.4852 180.288 55.2386 180.434 55.3726C181.459 56.317 183.948 55.6913 185.036 55.0555V59.0253C182.51 61.235 176.281 61.5833 174.565 58.2773C174.422 58.0015 173.972 56.7697 173.972 56.5344V46.0259H171.323V42.2898C175.072 42.4005 175.506 39.6438 176.154 36.6854L179.894 36.6846Z" fill="white"/>
<path d="M104.159 34.1924H98.082V60.1913H104.159V34.1924Z" fill="white"/>
<path d="M113.976 41.8189H108.055V60.1891H113.976V41.8189Z" fill="white"/>
<path d="M114.132 34.1914H107.899V39.64H114.132V34.1914Z" fill="white"/>
<path d="M274.485 34.1922V44.4669L275.97 42.7582C279.402 40.286 285.007 40.8914 286.559 45.2484C286.695 45.6286 287.108 47.1893 287.108 47.5025V60.1903H281.03V48.9034C281.03 48.6058 280.622 47.6194 280.436 47.3171C279.329 45.511 276.435 45.8655 275.265 47.5033C275.027 47.8368 274.485 49.187 274.485 49.526V60.1903H268.408V34.1914L274.485 34.1922Z" fill="white"/>
<path d="M244.565 52.2504H231.32C231.507 56.7368 238.02 57.6173 239.683 53.6451C241.305 53.829 242.978 53.8243 244.563 54.1936C243.224 59.7288 237.636 61.6026 232.468 60.3661C220.296 57.4536 224.814 38.1734 238.33 41.7435C241.121 42.4806 244.564 45.718 244.564 48.7481V52.2512L244.565 52.2504ZM238.799 49.2928C238.63 44.4495 231.723 44.5493 231.475 49.2928H238.799Z" fill="white"/>
<path d="M265.605 49.4478L260.638 49.7384C260.076 47.0916 258.69 45.7125 255.864 46.0226C251.848 46.4636 251.602 54.5637 255.209 55.8634C257.975 56.8591 260.235 54.9946 260.63 52.2613L265.605 52.7179C265.069 59.2488 258.688 62.1137 252.833 60.1059C244.105 57.1131 244.661 43.9415 253.574 41.71C259.47 40.2343 265.059 43.1242 265.605 49.4478Z" fill="white"/>
<path d="M9.57565 37.387C16.3883 37.387 23.2063 37.387 30.019 37.3876L26.8295 60.7634C14.5626 59.6946 4.09123 50.5474 0.982679 38.7111C0.866279 38.2686 0.808374 37.8284 0.712654 37.387H9.57565Z" fill="#FFBE4E"/>
<path d="M0.709899 37.3857C-3.38362 18.4531 10.6394 1.65009 29.7155 1.01727C29.8827 1.01196 30.4795 0.925099 30.3696 1.19808L9.57289 37.3857L9.46417 37.622H0.851116L0.709899 37.3857Z" fill="#238287"/>
<path d="M55.6587 15.6632C53.9753 18.4314 52.4101 21.2735 50.7905 24.0807C50.6611 24.3052 50.41 24.5156 50.3409 24.6355H30.0145L33.2146 1.2697C42.6827 2.18673 50.7941 7.62329 55.6587 15.6632Z" fill="#E7731F"/>
<path d="M30.8477 60.9986C30.4436 60.9548 30.0495 60.9158 29.666 60.8804C36.4568 48.9667 43.2813 37.0685 50.1324 25.1879C50.2429 24.9965 50.276 24.7584 50.3463 24.636L50.2145 24.4162C51.8471 21.7065 53.4992 18.9602 55.1695 16.1772L55.6641 15.6637C65.0075 31.1066 58.5605 51.1606 42.1539 58.4224C38.7854 59.9131 34.5454 60.9856 30.8477 60.9986Z" fill="#68C9CF"/>
<path d="M30.8477 60.9971C30.4749 60.9983 30.0997 60.9989 29.7257 60.9959L29.666 60.8789C30.037 60.9298 30.5671 60.7454 30.8477 60.9971Z" fill="#7ED5DA"/>
<path d="M230.694 0.875V3.21013H216.046V12.7065H227.733C227.682 13.0867 227.898 15.0416 227.499 15.0416H216.046V26.796C216.046 27.1505 213.396 27.1505 213.396 26.796V0.875H230.694Z" fill="white"/>
<path d="M239.232 8.54887C251.842 7.11211 253.022 26.5045 241.212 27.4964C229.216 28.5046 227.958 9.8337 239.232 8.54887ZM239.702 10.5762C232.429 11.2775 232.207 23.7611 238.921 25.2766C248.905 27.5307 249.658 9.61632 239.702 10.5762Z" fill="white"/>
<path d="M255.785 12.2416L256.724 10.7667C258.106 9.12969 259.503 8.23989 261.745 8.5461C263.987 8.85231 263.373 9.70704 263.265 11.4633C261.835 11.0355 260.58 10.5781 259.087 11.1033C257.207 11.7648 255.958 14.1755 255.788 16.0587C255.481 19.4823 256.031 23.3088 255.764 26.7768C255.616 27.2225 253.137 27.1064 253.137 26.7986V8.97307H255.786V12.2424L255.785 12.2416Z" fill="white"/>
<path d="M75.9549 0.875L82.891 19.0909L90.0576 0.875H96.213L86.2265 26.7827C86.1143 27.0235 85.9258 27.0126 85.7029 27.0383C85.064 27.1115 79.8125 27.092 79.5367 26.9541L79.2656 26.6019C76.0196 18.0133 72.4791 9.51973 69.41 0.875H75.9549Z" fill="white"/>
<path d="M114.137 19.0923H100.891C101.156 23.5615 107.648 24.2526 109.374 20.388L114.139 20.8843C111.97 30.2287 96.9692 29.4776 95.1716 20.2135C93.6149 12.1874 100.567 6.26346 108.333 8.62118C110.974 9.42294 114.136 12.7398 114.136 15.5892L114.137 19.0923ZM108.371 15.9788C108.269 11.2875 101.204 11.3241 101.047 15.9788H108.371Z" fill="white"/>
<path d="M209.815 19.091H196.57C196.835 23.5603 203.327 24.2514 205.052 20.3868L209.818 20.8831C207.614 30.2306 192.704 29.4826 190.85 20.2123C189.247 12.201 196.275 6.2716 204.012 8.61998C206.653 9.42173 209.815 12.7386 209.815 15.588L209.815 19.091ZM204.05 15.9775C203.915 11.2824 196.896 11.3221 196.726 15.9775H204.05Z" fill="white"/>
<path d="M117.099 8.66136H123.176V11.1523C125.038 8.47124 127.793 7.76299 130.975 8.26399C133.561 8.67071 135.798 11.6315 135.798 14.1879V26.7978C135.798 26.8141 135.581 27.0315 135.565 27.0315H129.955C129.938 27.0315 129.721 26.8141 129.721 26.7978V15.5888C129.721 15.5273 129.397 14.5642 129.332 14.4209C128.46 12.5073 125.574 12.4083 124.263 13.8724C123.909 14.2674 123.176 15.7439 123.176 16.2114V26.7978C123.176 26.8141 122.959 27.0315 122.942 27.0315H117.332C117.316 27.0315 117.099 26.8141 117.099 26.7978V8.66136Z" fill="white"/>
<path d="M159.636 8.66145V19.9483C159.636 20.0924 160.061 21.2285 160.173 21.4349C161.073 23.0875 163.814 23.0719 165.002 21.7287C165.425 21.2503 166.024 19.6195 166.024 19.0141V8.66145H172.101V26.7986C172.101 26.815 171.884 27.0324 171.868 27.0324H166.024V24.3856C164.066 27.5957 159.099 28.5299 156.062 26.321C154.73 25.3525 153.558 22.973 153.558 21.35V8.66223H159.635L159.636 8.66145Z" fill="white"/>
<path d="M145.925 3.52347V8.42748C145.925 8.44384 146.143 8.66122 146.159 8.66122H150.912V12.631C150.912 12.6474 150.695 12.8648 150.678 12.8648H145.925C146.051 15.1789 145.759 17.6597 145.919 19.9551C145.988 20.9508 145.978 21.8866 146.956 22.344C148.472 23.0538 149.754 22.2629 151.224 21.8944V25.7084C151.224 26.4556 147.342 27.4435 146.624 27.4965C143.618 27.7163 140.004 26.2779 140.004 22.7507V12.8648H137.51V9.20663C138.041 8.83108 138.82 8.93237 139.49 8.69395C141.652 7.92414 141.687 5.43162 142.185 3.52425L145.925 3.52347Z" fill="white"/>
<path d="M182.08 11.3066C183.105 9.41715 184.86 8.03181 187.101 8.08012C187.613 8.09103 189.365 8.38477 189.529 8.92317L189.247 14.4201C187.303 13.5732 184.001 13.242 182.635 15.2094C182.447 15.4798 181.923 16.7381 181.923 16.9898V26.7978C181.923 26.8141 181.706 27.0315 181.69 27.0315H176.08C176.063 27.0315 175.846 26.8141 175.846 26.7978V8.66059H181.923C181.965 9.53558 181.867 10.434 181.923 11.3074C181.972 11.4227 182.024 11.4219 182.079 11.3074L182.08 11.3066Z" fill="white"/>
<path d="M182.08 11.3066C182.04 11.3798 182.163 11.6214 182.002 11.6199C181.862 11.6199 181.931 11.4297 181.923 11.3074L182.08 11.3066Z" fill="white"/>
</svg>
