<svg width="290" height="60" viewBox="0 0 290 60" fill="none" xmlns="http://www.w3.org/2000/svg">
<g clip-path="url(#clip0_262_2)">
<path d="M60 0H0V60H60V0Z" fill="#F26625"/>
<path d="M28.0016 34.0016L17.6016 14.6016H22.4016L28.4016 26.8016C28.4016 27.0016 28.6016 27.2016 28.8016 27.4016C29.0016 27.6016 29.0016 27.8016 29.2016 28.2016L29.4016 28.4016V28.6016C29.6016 29.0016 29.6016 29.2016 29.8016 29.6016C30.0016 29.8016 30.0016 30.2016 30.2016 30.4016C30.4016 29.8016 30.8016 29.4016 31.0016 28.6016C31.2016 28.0016 31.6016 27.4016 32.0016 26.8016L38.0016 14.6016H42.4016L32.0016 34.2016V46.6016H28.0016V34.0016Z" fill="white"/>
<path d="M87.4 11.6016C90.4 11.6016 93 12.4016 95 14.0016L93 16.4016C91.2 15.2016 89.4 14.4016 87.2 14.4016C83.8 14.4016 81.2 16.2016 79.8 19.6016C79 21.6016 78.6 24.2016 78.6 27.6016C78.6 30.2016 79 32.4016 79.6 34.0016C81.2 37.8016 83.8 39.6016 87.8 39.6016C90 39.6016 92 39.0016 93.8 37.6016L95.8 40.2016C93.2 41.8016 90.4 42.6016 87.4 42.6016C83.8 42.6016 80.8 41.2016 78.4 38.2016C76 35.4016 75 31.6016 75 27.0016C75 22.4016 76.2 18.8016 78.6 15.8016C80.8 13.2016 83.8 11.6016 87.4 11.6016Z" fill="white"/>
<path d="M98.7969 31.4008C98.7969 27.8008 99.5969 25.0008 101.397 23.0008C103.197 21.0008 105.397 19.8008 108.197 19.8008C111.397 19.8008 113.997 21.0008 115.797 23.6008C117.197 25.6008 117.797 28.4008 117.797 31.8008C117.797 35.8008 116.597 39.0008 114.397 41.0008C112.797 42.4008 110.797 43.2008 108.397 43.2008C105.397 43.2008 103.197 42.2008 101.397 40.0008C99.5969 38.0008 98.7969 35.0008 98.7969 31.4008ZM112.797 25.6008C111.797 23.8008 110.397 22.8008 108.197 22.8008C105.997 22.8008 104.597 23.6008 103.597 25.2008C102.797 26.4008 102.597 28.4008 102.597 31.0008C102.597 34.4008 102.997 36.8008 103.997 38.2008C104.997 39.6008 106.397 40.4008 108.397 40.4008C110.797 40.4008 112.397 39.2008 113.197 37.0008C113.597 35.8008 113.797 34.2008 113.797 32.2008C113.997 29.2008 113.597 27.0008 112.797 25.6008Z" fill="white"/>
<path d="M124.198 26.0008C124.198 23.8008 123.998 22.0008 123.398 20.6008L126.798 19.8008C127.398 20.8008 127.598 22.0008 127.598 23.0008V23.2008C128.398 22.4008 129.198 21.6008 130.398 21.0008C131.798 20.2008 132.998 19.8008 134.198 19.8008C135.998 19.8008 137.598 20.6008 138.598 22.0008C138.798 22.4008 139.198 23.0008 139.398 23.4008C141.798 21.0008 143.998 19.8008 146.398 19.8008C147.998 19.8008 149.398 20.4008 150.398 21.4008C151.398 22.6008 151.998 24.0008 151.998 25.6008V42.2008H148.398V25.8008C148.398 23.6008 147.398 22.6008 145.598 22.6008C144.598 22.6008 143.398 23.0008 142.398 23.8008C141.998 24.2008 141.198 24.8008 140.198 25.6008L139.798 26.0008V42.2008H135.998V26.6008C135.998 25.2008 135.798 24.2008 135.398 23.8008C134.798 23.2008 134.198 23.0008 133.198 23.0008C131.598 23.0008 129.798 24.0008 127.598 26.0008V42.4008H124.198V26.0008Z" fill="white"/>
<path d="M158.203 10.8L161.803 10C162.203 11.6 162.403 13.4 162.403 15.6V20.6C162.403 21.8 162.403 22.6 162.403 23C164.403 21 166.603 20 168.803 20C171.403 20 173.603 21 175.003 23C176.603 25 177.403 27.8 177.403 31.2C177.403 34.8 176.603 37.6 175.003 39.8C173.403 42 171.203 43 168.603 43C167.403 43 166.403 42.8 165.203 42.2C164.003 41.6 163.203 41 162.603 40.2C162.403 41.2 162.203 42 162.003 42.6H158.603C159.003 41.6 159.203 39.8 159.203 37V16C159.003 13.6 158.803 11.8 158.203 10.8ZM164.003 24.4C163.403 24.8 162.803 25.4 162.403 26V37.4C163.803 39.2 165.603 40 167.803 40C169.603 40 171.003 39.4 171.803 38C172.803 36.4 173.403 34.2 173.403 31C173.403 28.2 173.003 26.2 172.003 25C171.203 23.8 169.803 23.2 167.803 23.2C166.603 23 165.203 23.4 164.003 24.4Z" fill="white"/>
<path d="M182.602 13.6008C182.602 12.8008 182.802 12.2008 183.402 11.6008C184.002 11.0008 184.602 10.8008 185.402 10.8008C186.202 10.8008 186.802 11.0008 187.402 11.6008C188.002 12.2008 188.202 12.8008 188.202 13.6008C188.202 14.4008 188.002 15.0008 187.402 15.6008C186.802 16.2008 186.202 16.4008 185.402 16.4008C184.602 16.4008 184.002 16.2008 183.402 15.6008C182.802 15.0008 182.602 14.4008 182.602 13.6008ZM183.402 42.4008V20.4008L187.002 19.8008V42.4008H183.402Z" fill="white"/>
<path d="M194.797 26.0008C194.797 24.4008 194.797 23.4008 194.597 23.0008C194.597 22.4008 194.197 21.8008 193.797 20.8008L197.197 19.8008C197.797 21.0008 197.997 22.0008 197.997 23.2008C200.197 21.0008 202.597 19.8008 204.997 19.8008C206.197 19.8008 207.197 20.0008 208.197 20.6008C209.197 21.2008 209.997 22.0008 210.397 23.0008C210.797 23.8008 210.997 24.6008 210.997 25.6008V42.4008H207.597V27.4008C207.597 25.6008 207.397 24.4008 206.797 23.8008C206.197 23.2008 205.397 22.8008 204.397 22.8008C203.597 22.8008 202.397 23.2008 201.197 23.8008C199.997 24.4008 198.997 25.2008 198.197 26.0008V42.4008H194.797V26.0008Z" fill="white"/>
<path d="M219.003 25.2008L217.203 22.8008C220.203 20.8008 223.203 19.8008 226.403 19.8008C229.603 19.8008 231.603 21.0008 232.603 23.2008C233.003 24.0008 233.003 25.2008 233.003 27.0008V28.2008L232.803 35.4008C232.803 35.6008 232.803 36.0008 232.803 36.4008C232.803 37.6008 232.803 38.4008 233.003 39.0008C233.203 39.8008 233.803 40.4008 234.603 40.8008L232.803 43.2008C231.203 42.6008 230.203 41.6008 229.803 40.0008C227.803 42.0008 225.603 43.0008 223.403 43.0008C221.203 43.0008 219.403 42.4008 218.003 41.2008C216.803 40.2008 216.203 38.6008 216.203 36.6008C216.203 34.0008 217.203 32.2008 219.203 30.8008C221.203 29.4008 224.203 28.8008 227.803 28.8008C228.403 28.8008 228.803 28.8008 229.403 28.8008V27.2008C229.403 25.4008 229.203 24.2008 228.603 23.8008C227.803 23.0008 227.003 22.6008 225.603 22.6008C224.403 22.6008 223.003 23.0008 221.403 23.6008C220.803 24.0008 220.003 24.6008 219.003 25.2008ZM229.603 37.0008L229.803 31.2008C228.803 31.2008 228.203 31.2008 228.003 31.2008C224.803 31.2008 222.803 31.8008 221.603 33.0008C220.803 33.8008 220.403 35.0008 220.403 36.6008C220.403 39.2008 221.603 40.6008 224.203 40.6008C226.603 40.4008 228.403 39.2008 229.603 37.0008Z" fill="white"/>
<path d="M244.4 20.4H250L249 23.2H244.4V37.4C244.4 38.6 244.6 39.4 245 40C245.4 40.4 246.2 40.8 247.2 40.8C248 40.8 248.8 40.6 249.4 40.4L249.8 42.6C248.6 43.2 247.4 43.4 246 43.4C242.6 43.4 241 41.8 241 38.4V23.2H238V20.4H240.8V20C240.8 19.6 241 18 241.2 15.4V14.8L244.8 14C244.4 16.4 244.4 18.6 244.4 20.4Z" fill="white"/>
<path d="M253.602 31.4008C253.602 27.8008 254.402 25.0008 256.202 23.0008C257.802 21.0008 260.202 19.8008 263.002 19.8008C266.202 19.8008 268.802 21.0008 270.602 23.6008C272.002 25.6008 272.602 28.4008 272.602 31.8008C272.602 35.8008 271.402 39.0008 269.202 41.0008C267.602 42.4008 265.602 43.2008 263.202 43.2008C260.202 43.2008 258.002 42.2008 256.202 40.0008C254.602 38.0008 253.602 35.0008 253.602 31.4008ZM267.802 25.6008C266.802 23.8008 265.402 22.8008 263.202 22.8008C261.002 22.8008 259.602 23.6008 258.602 25.2008C257.802 26.4008 257.602 28.4008 257.602 31.0008C257.602 34.4008 258.002 36.8008 259.002 38.2008C260.002 39.6008 261.402 40.4008 263.402 40.4008C265.802 40.4008 267.402 39.2008 268.202 37.0008C268.602 35.8008 268.802 34.2008 268.802 32.2008C268.802 29.2008 268.402 27.0008 267.802 25.6008Z" fill="white"/>
<path d="M279.198 25.6008C279.198 23.6008 278.998 22.0008 278.398 20.8008L281.798 19.8008C282.398 21.0008 282.598 22.0008 282.598 23.2008V23.6008C284.398 21.2008 286.398 20.0008 288.798 20.0008C289.198 20.0008 289.598 20.0008 289.998 20.2008L288.598 24.0008C288.198 23.8008 287.798 23.8008 287.598 23.8008C286.798 23.8008 285.798 24.0008 284.998 24.6008C284.198 25.2008 283.398 25.8008 282.998 26.6008C282.798 27.2008 282.598 28.0008 282.598 29.0008V42.8008H279.198V25.6008Z" fill="white"/>
</g>
<defs>
<clipPath id="clip0_262_2">
<rect width="290" height="60" fill="white"/>
</clipPath>
</defs>
</svg>
